Coordinates
version=1
nRows=18
nColumns=32
inDegrees=yes

Units are S.I. units (second, meters, Newtons, ...)
If the header above contains a line with 'inDegrees', this indicates whether rotational values are in degrees (yes) or radians (no).

endheader
time	pelvis_tilt	pelvis_list	pelvis_rotation	pelvis_tx	pelvis_ty	pelvis_tz	hip_flexion_r	hip_adduction_r	hip_rotation_r	knee_angle_r	knee_adduction_r	med_cond_adduction_r	lat_cond_adduction_r	patella_r_constrained_knee_angle	ankle_angle_r	subtalar_angle_r	mtp_angle_r	hip_flexion_l	hip_adduction_l	hip_rotation_l	knee_angle_l	knee_adduction_l	med_cond_adduction_l	lat_cond_adduction_l	patella_l_constrained_knee_angle	ankle_angle_l	subtalar_angle_l	mtp_angle_l	lumbar_extension	lumbar_bending	lumbar_rotation
      0.22500000	    -23.54956231	     15.86122697	     72.15174405	      0.47844831	      1.11314040	     -0.67776270	    -25.09368613	    -30.61557721	     -0.03973886	    -10.14367615	      0.00000000	     -0.00000000	      0.00000000	     -0.17704055	     -3.94563221	     12.48529904	      0.00000000	    -18.35218556	     28.50791946	     -9.96126977	    -52.38751012	     -0.00000000	     -0.00000000	      0.00000000	     -0.91433454	      7.27717001	      8.86124561	      0.00000000	      0.00000000	      0.00000000	      0.00000000
      0.22916667	    -24.70911597	     14.92968774	     72.48246884	      0.47710165	      1.11394275	     -0.69110933	    -24.51628989	    -31.80291334	     -2.92377189	    -10.24856904	     -0.00000000	     -0.00000000	      0.00000000	     -0.17887127	     -5.72590016	     14.57911784	      0.00000000	    -16.23199052	     29.19816470	    -10.01559338	    -51.33027172	      0.00000000	     -0.00000000	      0.00000000	     -0.89588225	      6.75051867	      8.26603603	     -0.00000000	      0.00000000	      0.00000000	     -0.00000000
      0.23333333	    -25.49834415	     14.02856984	     72.80516729	      0.47579298	      1.11499074	     -0.70453419	    -24.07579883	    -32.61357838	     -5.71846969	    -10.30957332	     -0.00000000	     -0.00000000	      0.00000000	     -0.17993600	     -7.82052634	     16.35804456	      0.00000000	    -14.29820305	     29.52758192	    -10.08687335	    -50.21411729	      0.00000000	      0.00000000	     -0.00000000	     -0.87640168	      6.19963386	      7.70984444	      0.00000000	      0.00000000	      0.00000000	     -0.00000000
      0.23750000	    -26.08929408	     13.08034042	     73.10024707	      0.47452582	      1.11610017	     -0.71794953	    -23.61422082	    -33.18718534	     -8.31528123	    -10.35194642	      0.00000000	      0.00000000	     -0.00000000	     -0.18067555	    -10.16532586	     17.59067293	      0.00000000	    -12.38646585	     29.66549092	    -10.15983491	    -49.05606959	      0.00000000	      0.00000000	     -0.00000000	     -0.85618993	      5.77993863	      7.29044199	      0.00000000	      0.00000000	      0.00000000	     -0.00000000
      0.24166667	    -26.56947075	     12.09913472	     73.45498922	      0.47297111	      1.11735112	     -0.73145206	    -23.17773515	    -33.61734677	    -10.85812043	    -10.37021204	     -0.00000000	      0.00000000	     -0.00000000	     -0.18099434	    -12.76025824	     18.40816079	      0.00000000	    -10.52329476	     29.73371660	    -10.05161325	    -47.81282927	     -0.00000000	      0.00000000	     -0.00000000	     -0.83449130	      5.05053011	      6.67592536	     -0.00000000	      0.00000000	      0.00000000	     -0.00000000
      0.24583333	    -26.98144331	     11.12820053	     73.80280530	      0.47140142	      1.11861780	     -0.74500620	    -22.75068940	    -33.98678623	    -13.27795231	    -10.46978243	      0.00000000	     -0.00000000	      0.00000000	     -0.18273218	    -15.43108697	     18.88965917	      0.00000000	     -8.71274359	     29.77152263	     -9.88688002	    -46.53345838	     -0.00000000	     -0.00000000	      0.00000000	     -0.81216206	      4.40460897	      6.05977132	      0.00000000	      0.00000000	     -0.00000000	     -0.00000000
      0.25000000	    -27.33087106	     10.19826393	     74.12987790	      0.46980482	      1.11990330	     -0.75853466	    -22.35975055	    -34.30782433	    -15.65913248	    -10.51660295	      0.00000000	     -0.00000000	      0.00000000	     -0.18354935	    -18.27953455	     19.13005322	      0.00000000	     -7.00901731	     29.79686095	     -9.61248635	    -45.12332634	      0.00000000	      0.00000000	     -0.00000000	     -0.78755061	      3.68500976	      5.48793365	      0.00000000	      0.00000000	     -0.00000000	     -0.00000000
      0.25416667	    -27.66081894	      9.25621545	     74.52330060	      0.46811982	      1.12119038	     -0.77208005	    -21.98856059	    -34.58943718	    -18.06943764	    -10.58056094	      0.00000000	      0.00000000	     -0.00000000	     -0.18466563	    -21.17244900	     19.27055609	      0.00000000	     -5.34112504	     29.81271298	     -9.21176889	    -43.66442882	     -0.00000000	      0.00000000	     -0.00000000	     -0.76208805	      2.92167259	      4.92595260	      0.00000000	      0.00000000	     -0.00000000	     -0.00000000
      0.25833333	    -27.91664536	      8.34244071	     74.87225952	      0.46630507	      1.12241049	     -0.78571590	    -21.63478780	    -34.84759612	    -20.34276072	    -10.57857698	     -0.00000000	      0.00000000	     -0.00000000	     -0.18463100	    -24.28694125	     19.36350157	      0.00000000	     -3.75593243	     29.82560441	     -8.73742942	    -42.13948121	     -0.00000000	      0.00000000	     -0.00000000	     -0.73547269	      2.06787097	      4.18793461	     -0.00000000	      0.00000000	     -0.00000000	     -0.00000000
      0.26250000	    -28.10315176	      7.52784900	     75.25497122	      0.46455825	      1.12367767	     -0.79939741	    -21.41298922	    -35.06418827	    -22.61281525	    -10.60913028	     -0.00000000	      0.00000000	     -0.00000000	     -0.18516425	    -27.54087392	     19.40458876	      0.00000000	     -2.35981605	     29.82908869	     -8.09338153	    -40.53941998	     -0.00000000	     -0.00000000	      0.00000000	     -0.70754636	      1.10796660	      3.29590786	     -0.00000000	      0.00000000	     -0.00000000	     -0.00000000
      0.26666667	    -28.28667087	      6.64115910	     75.63090943	      0.46264156	      1.12469242	     -0.81304098	    -21.08637121	    -35.27867654	    -24.86124998	    -10.74016764	     -0.00000000	     -0.00000000	      0.00000000	     -0.18745129	    -30.45144816	     19.42778099	     -0.00000000	     -0.90276452	     29.83399219	     -7.39109552	    -38.93250637	      0.00000000	      0.00000000	     -0.00000000	     -0.67950042	      0.26803803	      2.65439138	      0.00000000	      0.00000000	     -0.00000000	     -0.00000000
      0.27083333	    -28.41862454	      5.82858799	     76.05792933	      0.46060727	      1.12571535	     -0.82670851	    -20.87930600	    -35.46860532	    -27.12214025	    -10.84543882	      0.00000000	      0.00000000	     -0.00000000	     -0.18928862	    -33.48012838	     19.42815520	     -0.00000000	      0.40107434	     29.83462562	     -6.54332084	    -37.26326704	      0.00000000	     -0.00000000	      0.00000000	     -0.65036670	     -0.79358276	      1.73648961	      0.00000000	      0.00000000	     -0.00000000	     -0.00000000
      0.27500000	    -28.52642321	      5.01615232	     76.50604379	      0.45855225	      1.12661572	     -0.84043127	    -20.69004291	    -35.65339653	    -29.33941658	    -11.00910120	      0.00000000	      0.00000000	     -0.00000000	     -0.19214506	    -36.22459954	     19.40407745	      0.00000000	      1.65104622	     29.83357531	     -5.58895347	    -35.55420716	      0.00000000	     -0.00000000	      0.00000000	     -0.62053798	     -1.78415509	      0.88097253	      0.00000000	      0.00000000	      0.00000000	      0.00000000
      0.27916667	    -28.59738226	      4.29245189	     76.98779322	      0.45656943	      1.12734360	     -0.85402975	    -20.62026537	    -35.78884662	    -31.50767723	    -11.26906147	     -0.00000000	     -0.00000000	      0.00000000	     -0.19668223	    -38.39244817	     19.38167903	      0.00000000	      2.78461631	     29.82954680	     -4.56638208	    -33.91177932	     -0.00000000	     -0.00000000	      0.00000000	     -0.59187220	     -2.83898864	     -0.15218989	     -0.00000000	      0.00000000	      0.00000000	      0.00000000
      0.28333333	    -28.66570277	      3.55627906	     77.43953501	      0.45463611	      1.12770240	     -0.86768672	    -20.48712390	    -35.96757680	    -33.56900867	    -11.84206860	      0.00000000	     -0.00000000	      0.00000000	     -0.20668309	    -39.30566742	     19.39178536	      0.00000000	      3.91928925	     29.81810640	     -3.51390962	    -32.29025069	      0.00000000	     -0.00000000	      0.00000000	     -0.56357119	     -3.78194485	     -0.95549512	     -0.00000000	      0.00000000	      0.00000000	     -0.00000000
      0.28750000	    -28.70279436	      2.79771834	     77.87098351	      0.45267353	      1.12785955	     -0.88137973	    -20.31742317	    -36.12412485	    -35.47355047	    -12.53544495	     -0.00000000	      0.00000000	     -0.00000000	     -0.21878479	    -39.58027391	     19.38934983	     -0.00000000	      5.05886823	     29.80365648	     -2.47760733	    -30.60722426	      0.00000000	     -0.00000000	      0.00000000	     -0.53419684	     -4.87678494	     -2.25963568	     -0.00000000	      0.00000000	      0.00000000	     -0.00000000
      0.29166667	    -28.70916823	      1.97456199	     78.31470197	      0.45056065	      1.12776516	     -0.89509207	    -20.09438439	    -36.24204641	    -37.27820730	    -13.26379077	     -0.00000000	      0.00000000	     -0.00000000	     -0.23149682	    -39.69850311	     19.36587895	      0.00000000	      6.24410475	     29.77398120	     -1.32678793	    -28.98243366	     -0.00000000	      0.00000000	     -0.00000000	     -0.50583889	     -5.88786127	     -3.55209566	     -0.00000000	      0.00000000	      0.00000000	     -0.00000000
      0.29583333	    -28.72023377	      1.37464949	     78.48913073	      0.44900057	      1.12762471	     -0.90895257	    -19.93132116	    -36.50416846	    -38.70819064	    -13.97544462	      0.00000000	     -0.00000000	      0.00000000	     -0.24391752	    -39.76095118	     19.32574810	     -0.00000000	      7.28193435	     29.71214664	     -0.68132986	    -27.28241850	      0.00000000	     -0.00000000	      0.00000000	     -0.47616803	     -6.99611183	     -4.64102279	      0.00000000	      0.00000000	      0.00000000	     -0.00000000
